<?xml version="1.0" standalone="no"?>
<!DOCTYPE svg PUBLIC "-//W3C//DTD SVG 20010904//EN"
 "http://www.w3.org/TR/2001/REC-SVG-20010904/DTD/svg10.dtd">
<svg version="1.0" xmlns="http://www.w3.org/2000/svg"
 width="1011.000000pt" height="1011.000000pt" viewBox="0 0 1011.000000 1011.000000"
 preserveAspectRatio="xMidYMid meet">
<metadata>
Created by potrace 1.14, written by Peter Selinger 2001-2017
</metadata>
<g transform="translate(0.000000,1011.000000) scale(0.100000,-0.100000)"
fill="#000000" stroke="none">
<path d="M0 5055 l0 -5055 2074 0 2074 0 11 33 c10 29 103 148 122 155 4 2 19
-19 33 -47 l26 -50 -40 -42 c-22 -23 -40 -44 -40 -46 0 -1 70 -3 155 -3 85 0
155 2 155 5 0 3 -7 16 -15 29 -15 22 -12 34 50 205 36 100 74 195 83 211 l18
29 33 -27 32 -27 -74 -210 -75 -210 80 -3 c44 -2 82 -2 83 0 1 2 5 68 9 148
14 323 18 375 37 422 15 39 16 46 3 41 -14 -5 -84 35 -84 49 0 4 15 17 33 29
17 13 52 40 76 61 24 21 50 38 57 38 12 0 14 109 14 651 l0 650 -151 597 c-83
328 -166 652 -184 719 -19 66 -39 143 -45 170 -6 26 -40 118 -76 203 -188 445
-219 513 -237 518 -17 4 -18 12 -13 71 3 36 8 108 12 160 l6 93 67 -7 c36 -4
69 -10 73 -14 5 -4 14 -78 21 -164 8 -87 17 -160 20 -164 8 -7 8 -6 43 138
l28 117 -33 51 -33 51 -103 0 c-111 0 -131 8 -96 41 12 11 21 30 21 43 0 13
23 184 50 382 38 268 50 383 48 452 l-3 94 -54 -199 c-44 -159 -65 -216 -105
-291 -33 -60 -56 -91 -66 -89 -21 3 -30 118 -31 402 l0 230 60 204 c33 113 59
207 56 209 -2 2 -32 -35 -67 -83 -183 -253 -168 -237 -283 -313 -59 -40 -105
-72 -102 -72 16 0 120 24 180 42 37 11 70 18 73 15 41 -41 -216 -269 -634
-561 -62 -43 -110 -81 -108 -83 7 -7 113 54 256 148 179 117 184 118 326 46
103 -52 111 -59 148 -117 21 -33 37 -62 35 -64 -2 -2 -40 7 -83 20 -119 36
-170 32 -394 -29 -106 -29 -190 -56 -186 -60 4 -4 38 -7 74 -7 50 0 82 6 124
25 l57 25 115 -29 c64 -16 116 -31 117 -33 1 -2 19 -22 40 -44 31 -34 42 -58
67 -150 29 -104 104 -504 96 -511 -9 -10 -140 195 -199 312 -56 110 -74 136
-114 166 -42 32 -61 39 -148 52 -124 19 -375 32 -375 20 0 -5 39 -15 88 -21
48 -7 127 -27 176 -45 81 -29 93 -37 145 -97 47 -52 61 -78 75 -130 9 -36 54
-174 99 -308 70 -206 80 -244 67 -252 -8 -5 -19 -10 -25 -10 -5 0 -55 64 -110
141 -96 135 -107 147 -290 302 -104 88 -236 203 -292 255 -100 92 -138 110
-109 53 8 -15 55 -70 104 -122 100 -105 140 -175 190 -329 29 -89 97 -431 89
-453 -1 -5 -27 30 -57 79 -30 49 -104 161 -165 249 -103 147 -115 171 -160
295 -26 74 -51 139 -55 143 -5 5 -11 -33 -15 -85 l-6 -93 56 -160 c130 -366
139 -422 111 -690 -10 -88 -18 -161 -20 -162 -16 -16 -41 28 -81 140 -26 73
-66 168 -89 212 -63 117 -102 255 -117 408 l-13 128 38 157 c22 86 41 163 44
169 2 7 0 13 -5 13 -28 0 -97 -208 -128 -386 -16 -99 -72 -231 -168 -398 -43
-74 -66 -102 -141 -165 -121 -103 -120 -103 -139 -88 -14 11 -13 19 13 82 16
40 39 135 54 221 20 114 37 178 72 265 92 229 272 480 409 569 36 23 65 46 65
50 0 16 -13 18 -44 5 -17 -7 -83 -23 -146 -34 -252 -46 -409 -144 -566 -353
-88 -115 -152 -188 -166 -188 -16 0 -6 32 55 177 35 81 81 204 101 272 22 71
52 145 69 172 30 45 35 48 124 73 l93 27 214 -11 c117 -6 248 -17 290 -24 76
-13 77 -13 59 7 -10 11 -56 37 -101 58 l-84 39 -146 0 c-128 0 -157 -3 -226
-25 -55 -16 -117 -26 -195 -31 l-116 -6 -147 87 c-120 71 -148 91 -148 110 0
20 7 23 94 33 67 9 125 24 198 53 l103 41 160 -5 c207 -7 232 -16 434 -172 94
-72 163 -118 183 -122 l33 -6 -28 30 c-20 21 -35 55 -48 109 -14 53 -38 109
-75 172 -50 83 -61 96 -108 119 l-52 25 -133 -66 c-148 -75 -184 -81 -189 -33
-7 58 147 169 368 267 84 37 86 37 157 27 66 -9 78 -14 134 -61 52 -43 66 -62
88 -119 l27 -68 69 77 c63 70 80 82 187 135 77 38 136 60 172 64 l54 7 27 72
c33 84 130 280 191 386 39 69 52 82 151 151 73 51 125 80 161 89 29 8 52 19
52 27 0 16 -14 16 -106 -1 -94 -17 -150 -52 -532 -333 -167 -123 -307 -223
-312 -223 -23 0 -6 40 48 116 34 48 74 122 97 179 40 98 60 126 190 266 40 43
49 47 141 68 98 21 102 21 269 6 261 -23 291 -19 198 23 -140 63 -169 69 -298
59 -116 -9 -124 -11 -254 -69 -95 -42 -166 -66 -238 -80 -99 -20 -104 -20
-196 -4 -84 15 -103 23 -157 62 -53 39 -60 47 -49 61 11 12 27 14 89 9 l75 -7
130 62 c72 34 177 88 235 120 l105 57 155 -13 c85 -8 187 -22 226 -33 67 -18
77 -25 137 -88 35 -38 77 -84 92 -101 19 -23 35 -33 56 -33 25 0 29 4 29 28 0
39 -39 131 -71 169 -15 17 -53 45 -85 61 -58 29 -62 29 -266 35 l-207 5 -102
63 c-100 63 -104 66 -190 189 -49 69 -89 129 -89 133 0 5 15 0 33 -11 17 -11
63 -30 100 -42 67 -22 75 -22 275 -13 197 9 212 8 321 -14 110 -22 116 -25
182 -78 92 -74 134 -150 143 -255 4 -41 9 -100 13 -130 l6 -54 56 110 c52 103
64 118 172 222 110 106 123 115 240 171 95 45 140 60 191 65 57 6 69 11 84 34
60 93 96 123 234 192 83 42 160 73 198 80 59 12 62 14 62 41 0 16 -1 29 -2 29
-2 0 -98 -20 -214 -44 -146 -30 -226 -52 -255 -69 -24 -13 -75 -42 -114 -62
-115 -62 -139 -80 -286 -211 -104 -94 -165 -140 -237 -179 -53 -30 -99 -52
-102 -50 -3 2 -4 24 -2 49 4 42 9 49 72 103 60 51 80 78 162 220 l94 162 114
91 115 92 110 -6 c341 -17 408 -19 401 -7 -4 6 -17 11 -29 11 -19 1 -18 3 8
14 l30 13 -177 116 -177 115 -178 7 c-98 4 -184 9 -192 11 -9 3 38 40 112 89
l127 85 134 0 c117 0 146 -3 215 -25 l80 -26 77 -136 c74 -131 77 -135 90
-112 19 35 17 48 -12 87 l-27 34 12 132 c22 256 23 250 -79 524 -69 186 -90
253 -90 292 0 27 4 50 8 50 16 0 91 -86 112 -130 12 -25 89 -146 170 -270 139
-212 149 -229 160 -295 11 -66 9 -80 -24 -239 -20 -94 -34 -172 -31 -174 6 -6
137 77 152 96 19 24 16 71 -9 110 -19 31 -20 38 -8 71 20 56 33 67 81 63 33
-4 45 -10 58 -33 13 -23 27 -31 71 -39 86 -17 91 -25 17 -28 -66 -3 -68 -4
-84 -37 -14 -30 -15 -40 -2 -87 l14 -53 145 -1 c80 -1 211 -7 291 -13 l145
-11 116 50 c64 28 121 50 126 50 21 0 -32 -127 -82 -196 -50 -69 -52 -71 -162
-117 l-110 -47 -204 28 -203 29 -166 -61 c-135 -50 -167 -65 -169 -82 -3 -19
9 -17 155 33 l158 54 138 -7 137 -7 106 -82 c77 -60 128 -110 185 -181 43 -55
79 -103 79 -107 0 -4 -15 -6 -32 -3 -18 3 -55 8 -83 11 -27 3 -131 33 -230 65
-179 59 -181 59 -400 78 -121 11 -221 18 -223 17 -1 -1 0 -10 4 -19 7 -18 29
-29 184 -87 100 -38 111 -45 222 -144 95 -85 124 -118 157 -177 l40 -73 84
-29 c92 -32 82 -32 240 13 37 11 65 15 62 10 -4 -5 226 -9 599 -9 l606 0 0
-410 0 -410 110 0 110 0 -1 -27 c0 -16 -8 -122 -19 -238 l-18 -210 80 -1628
c44 -895 78 -1630 75 -1633 -2 -3 -44 2 -93 10 -81 14 -93 14 -140 -1 -49 -15
-67 -15 -286 4 l-233 19 -106 -47 c-59 -26 -160 -62 -225 -80 -66 -18 -223
-72 -349 -120 -153 -57 -252 -89 -295 -94 -35 -4 -71 -11 -80 -16 -8 -5 -28
-14 -44 -19 -26 -10 -28 -13 -23 -50 6 -47 -1 -49 -33 -15 -15 16 -30 23 -42
19 -14 -4 -18 0 -18 20 0 17 -28 54 -94 126 -52 56 -96 111 -99 123 -3 12 -19
63 -37 112 -31 87 -34 92 -103 147 -40 32 -87 71 -104 87 -18 16 -33 27 -33
23 0 -5 20 -66 44 -138 42 -126 43 -134 50 -297 l6 -168 -91 -172 c-51 -95
-95 -176 -99 -180 -11 -12 -19 48 -25 203 -6 132 -8 139 -72 334 l-65 198 36
196 c20 107 35 196 34 198 -2 1 -24 -24 -49 -55 -37 -47 -52 -78 -77 -163 -17
-57 -29 -113 -27 -124 3 -10 14 -110 25 -221 l20 -203 -72 -142 -71 -143 -40
120 c-21 66 -61 195 -87 286 l-48 167 98 193 c86 170 104 198 147 232 74 59
74 62 -4 23 -71 -35 -73 -37 -174 -183 -58 -85 -133 -212 -177 -298 -62 -123
-82 -155 -116 -180 l-41 -31 -3 -571 -2 -571 213 -192 c277 -248 334 -321 382
-483 l32 -112 2197 -3 2196 -2 0 5055 0 5055 -5055 0 -5055 0 0 -5055z m1680
-2457 c0 -9 3 -9 12 0 9 9 90 12 305 12 l293 0 5 -22 c33 -151 55 -334 55
-460 0 -124 -24 -329 -55 -465 l-5 -23 -293 0 c-215 0 -296 3 -305 12 -9 9
-12 9 -12 0 0 -9 -74 -12 -305 -12 l-305 0 0 23 c0 12 11 87 25 167 19 110 25
181 25 295 0 114 -6 185 -25 295 -14 80 -25 155 -25 168 l0 22 305 0 c231 0
305 -3 305 -12z m1787 -153 c53 -263 45 -456 -32 -782 l-5 -23 -390 0 c-215 0
-390 1 -390 3 0 1 14 71 30 156 26 135 30 176 30 326 0 151 -4 190 -30 320
-16 81 -30 152 -30 157 0 4 176 7 392 6 l392 -3 33 -160z m1348 6 l17 -69 -42
-38 c-36 -33 -62 -44 -192 -81 -83 -24 -152 -42 -154 -40 -2 2 47 44 108 93
62 49 142 115 177 147 36 31 66 57 67 57 1 0 9 -31 19 -69z m95 -624 c0 -28
-7 -39 -37 -60 -20 -15 -39 -25 -41 -22 -7 6 58 115 69 115 5 0 9 -15 9 -33z
m-267 -1300 c26 -21 27 -24 15 -48 -8 -15 -56 -76 -107 -138 -65 -77 -97 -108
-105 -102 -7 6 -21 27 -33 48 l-21 38 96 113 c52 61 103 112 111 112 9 0 29
-10 44 -23z"/>
<path d="M5700 7208 c-7 -23 -23 -63 -35 -88 -104 -203 -200 -511 -234 -748
-11 -74 -22 -136 -24 -138 -2 -3 -27 51 -54 118 l-50 123 9 140 c9 136 11 142
72 305 41 110 75 183 99 215 47 61 50 90 5 50 -138 -124 -131 -114 -217 -329
-71 -177 -82 -215 -96 -316 -21 -156 -20 -179 9 -209 39 -42 227 -450 220
-477 -3 -13 -9 -24 -13 -24 -14 0 -197 78 -293 125 -94 46 -98 49 -147 124
-68 102 -133 165 -200 190 -30 11 -56 19 -58 17 -3 -2 20 -18 49 -35 34 -19
87 -69 151 -140 113 -128 138 -177 158 -318 11 -80 10 -112 -4 -240 -10 -80
-19 -149 -22 -151 -15 -15 -44 28 -133 200 -55 106 -114 226 -130 266 -42 97
-231 412 -248 412 -8 0 -14 -2 -14 -6 0 -3 36 -67 80 -143 64 -109 89 -166
121 -267 38 -121 41 -139 47 -290 9 -200 4 -454 -7 -454 -17 0 -148 176 -197
263 -42 77 -49 86 -56 65 -4 -13 -27 -176 -53 -363 -25 -187 -48 -351 -51
-366 -4 -24 -3 -25 30 -21 29 3 36 9 41 33 4 16 18 43 32 59 23 28 29 30 97
30 63 0 75 -3 94 -23 20 -21 62 -124 62 -153 0 -7 -15 -39 -34 -71 -32 -54
-34 -62 -29 -123 l6 -65 71 -44 c39 -25 104 -66 143 -92 40 -26 74 -45 77 -41
3 6 13 67 31 205 l5 37 -43 0 c-80 0 -135 11 -140 29 -3 9 -8 23 -11 32 -5 12
15 25 91 59 54 23 105 51 114 61 9 10 19 46 23 84 12 115 14 122 50 128 17 3
45 9 62 12 l32 7 -15 -81 c-9 -45 -13 -84 -10 -87 3 -3 14 -1 25 5 12 6 32 11
45 11 14 0 31 9 38 19 146 203 227 295 339 386 135 109 149 139 47 99 -33 -13
-72 -34 -86 -47 -111 -99 -183 -170 -224 -219 -27 -32 -53 -56 -58 -52 -5 3
-9 20 -9 37 0 18 -3 42 -6 53 -5 20 -9 21 -42 12 -27 -7 -58 -32 -117 -94
l-80 -86 -130 33 c-71 17 -132 34 -135 36 -2 2 4 19 14 38 16 30 27 36 100 55
44 12 84 22 88 23 3 1 59 45 123 97 73 60 124 109 136 133 23 43 17 46 -31 14
-19 -13 -53 -33 -75 -46 -39 -22 -38 -21 15 28 81 75 43 66 -141 -35 l-158
-85 -40 27 c-23 15 -41 28 -41 29 0 9 229 178 335 248 115 74 141 87 212 102
74 16 83 20 94 47 13 31 31 41 110 63 56 15 76 7 60 -23 -6 -11 -11 -25 -11
-30 0 -5 37 -23 82 -41 80 -31 82 -31 100 -13 18 18 17 20 -49 64 -38 25 -84
53 -103 63 -59 30 -160 25 -357 -20 -17 -4 -23 2 -32 26 l-11 31 123 58 c67
32 138 61 157 65 43 9 76 29 77 47 1 7 13 67 28 133 14 66 28 131 31 145 3 14
11 52 18 85 8 33 17 83 20 110 13 102 76 918 72 922 -3 3 -10 -15 -16 -39z"/>
<path d="M5851 7085 c27 -81 36 -165 45 -390 l6 -190 -42 -212 c-24 -117 -46
-210 -51 -208 -4 3 -17 35 -29 71 -12 36 -23 64 -25 62 -1 -2 -22 -88 -45
-193 -23 -104 -43 -197 -46 -205 -3 -11 13 -26 46 -45 27 -16 50 -32 50 -35 1
-3 16 -23 34 -44 l34 -40 22 73 21 73 142 68 141 67 76 -50 c61 -41 86 -66
133 -135 32 -46 56 -86 53 -89 -3 -3 -57 20 -122 51 -64 31 -126 56 -137 56
-18 0 -59 -31 -165 -126 -40 -36 -45 -46 -63 -129 -10 -49 -18 -93 -17 -96 2
-4 53 33 113 81 92 74 124 94 198 121 83 30 93 31 179 25 84 -6 95 -10 149
-47 33 -22 59 -36 59 -32 0 4 -7 85 -15 178 -8 94 -15 182 -15 198 l0 27 110
0 110 0 0 390 c0 215 -3 390 -6 390 -4 0 -40 -20 -80 -45 l-74 -45 -137 22
c-137 21 -138 22 -258 90 -112 65 -130 80 -267 221 l-147 152 20 -60z"/>
<path d="M4898 6652 c-103 -93 -114 -100 -263 -166 -85 -38 -155 -72 -155 -77
0 -19 25 -16 146 17 l129 37 120 -11 c66 -5 131 -13 143 -17 l24 -8 -28 54
-27 54 13 103 c6 57 10 105 9 107 -2 2 -52 -40 -111 -93z"/>
<path d="M6288 5425 c-26 -18 -80 -34 -180 -55 -78 -17 -143 -32 -145 -33 -1
-2 4 -13 13 -25 13 -19 24 -22 84 -22 66 0 73 -2 152 -52 46 -28 89 -56 95
-62 22 -19 81 -425 92 -626 8 -162 8 -205 -1 -189 -6 9 -333 662 -336 670 -2
5 9 5 25 -1 27 -10 27 -9 -8 23 -20 17 -57 47 -83 65 l-46 33 0 -53 c0 -43 11
-75 54 -170 43 -91 59 -142 77 -235 l22 -118 -18 -220 c-9 -121 -20 -240 -24
-265 l-6 -45 -44 83 c-23 46 -83 146 -132 222 -64 100 -93 156 -104 202 -9 35
-20 66 -23 70 -4 4 -48 -38 -97 -92 -87 -97 -97 -104 -305 -230 -118 -71 -231
-143 -250 -160 -34 -29 -34 -30 -9 -28 14 1 39 -8 56 -20 16 -12 123 -48 236
-80 114 -32 210 -61 213 -65 3 -3 -11 -9 -31 -13 -33 -6 -40 -13 -61 -59 l-24
-52 -153 -13 c-83 -7 -202 -12 -262 -11 l-111 2 -37 -78 c-76 -158 -76 -160
-51 -372 12 -102 38 -271 58 -376 20 -104 36 -193 36 -197 0 -24 23 5 90 116
l75 124 85 42 85 41 129 -11 c120 -10 134 -14 209 -52 45 -22 77 -34 71 -27
-71 93 -78 98 -159 133 -74 32 -93 36 -167 36 -124 -1 -224 -33 -329 -107 -93
-66 -109 -76 -109 -70 0 2 27 39 60 82 33 43 112 123 176 178 140 120 181 137
340 137 l102 0 83 -62 c46 -33 85 -62 87 -63 2 -2 29 -81 62 -176 32 -96 59
-169 59 -163 1 6 10 101 21 211 l20 200 64 134 c59 124 69 140 142 210 44 41
106 92 140 112 56 33 150 63 174 55 5 -2 -33 -80 -86 -175 -85 -153 -270 -573
-262 -594 2 -4 71 42 153 102 145 106 151 109 193 104 29 -3 42 -1 42 8 0 6
23 460 50 1007 27 547 50 1000 50 1005 0 6 -13 -19 -28 -55 -35 -80 -161 -310
-170 -310 -4 0 -20 19 -36 41 l-28 40 7 167 c9 215 9 233 -7 243 -18 12 -19
12 -60 -16z"/>
<path d="M5436 5335 c-5 -14 13 -15 141 -13 106 2 147 6 151 16 3 9 -30 12
-141 12 -121 0 -146 -3 -151 -15z"/>
<path d="M5764 5142 c-38 -49 -61 -123 -86 -272 l-21 -125 -116 -86 c-132 -98
-352 -219 -399 -219 -28 0 -31 -3 -40 -47 -18 -86 -25 -146 -16 -141 5 3 97
57 204 121 l195 116 118 130 c64 71 117 138 117 148 0 53 56 314 76 355 19 37
21 47 9 51 -8 4 -25 -9 -41 -31z"/>
<path d="M4901 4088 c-5 -13 -23 -58 -40 -102 -18 -43 -30 -80 -28 -82 2 -2
24 44 49 101 25 58 42 105 37 105 -5 0 -13 -10 -18 -22z"/>
<path d="M4540 3930 c0 -6 114 -346 125 -372 12 -30 20 -21 45 50 13 37 36 95
51 130 l28 62 -25 0 c-13 0 -58 14 -100 32 -57 24 -82 40 -100 67 -13 20 -24
33 -24 31z"/>
<path d="M6315 3024 c-33 -24 -64 -48 -70 -52 -5 -4 -40 -29 -77 -56 -67 -47
-80 -59 -55 -51 6 2 64 6 127 9 85 4 130 2 170 -9 79 -21 80 -21 80 27 0 39
-24 77 -109 169 -3 4 -33 -13 -66 -37z"/>
<path d="M5440 2865 c-168 -61 -165 -59 -300 -186 -71 -68 -130 -128 -130
-133 0 -23 64 -335 68 -331 2 2 27 82 56 177 l52 173 71 88 c44 54 107 115
162 158 76 59 103 83 89 78 -2 0 -32 -11 -68 -24z"/>
<path d="M6064 2720 c3 -19 12 -38 19 -42 6 -4 69 -42 138 -85 l127 -76 42
-106 c70 -174 66 -173 75 -19 9 183 14 175 -173 302 -62 42 -73 46 -151 52
l-84 7 7 -33z"/>
<path d="M4961 592 c-49 -108 -54 -148 -64 -445 l-5 -147 169 0 c93 0 169 3
169 7 0 3 -34 113 -75 244 -41 131 -75 242 -75 247 0 4 15 14 34 22 l35 13
-20 40 c-25 48 -20 55 13 19 19 -20 48 -99 113 -310 l88 -282 138 0 c106 0
137 3 134 13 -2 6 -16 52 -31 102 -18 62 -36 101 -58 125 -17 19 -44 53 -60
75 -32 43 -368 346 -395 356 -64 24 -63 24 -110 -79z"/>
</g>
</svg>
