<?xml version="1.0" encoding="UTF-8" standalone="no"?>
<!-- Created with Inkscape (http://www.inkscape.org/) -->

<svg
   width="210mm"
   height="297mm"
   viewBox="0 0 210 297"
   version="1.1"
   id="svg5"
   inkscape:version="1.1 (c68e22c387, 2021-05-23)"
   sodipodi:docname="drawing.svg"
   xmlns:inkscape="http://www.inkscape.org/namespaces/inkscape"
   xmlns:sodipodi="http://sodipodi.sourceforge.net/DTD/sodipodi-0.dtd"
   xmlns="http://www.w3.org/2000/svg"
   xmlns:svg="http://www.w3.org/2000/svg">
  <sodipodi:namedview
     id="namedview7"
     pagecolor="#ffffff"
     bordercolor="#666666"
     borderopacity="1.0"
     inkscape:pageshadow="2"
     inkscape:pageopacity="0.0"
     inkscape:pagecheckerboard="0"
     inkscape:document-units="mm"
     showgrid="false"
     inkscape:zoom="0.72337262"
     inkscape:cx="397.44385"
     inkscape:cy="561.95105"
     inkscape:window-width="1920"
     inkscape:window-height="1001"
     inkscape:window-x="-9"
     inkscape:window-y="-9"
     inkscape:window-maximized="1"
     inkscape:current-layer="layer1" />
  <defs
     id="defs2" />
  <g
     inkscape:label="Layer 1"
     inkscape:groupmode="layer"
     id="layer1">
    <rect
       style="fill:#000000;fill-opacity:1;stroke-width:0.529167;stroke-linecap:round;stroke-linejoin:round;stop-color:#000000"
       id="rect1596"
       width="179.58989"
       height="161.30171"
       x="16.825123"
       y="49.378078" />
    <path
       id="path846"
       style="fill:#ffffff;stroke-width:2;stroke-linecap:round;stroke-linejoin:round;stop-color:#000000"
       inkscape:transform-center-x="-2.4580036"
       inkscape:transform-center-y="11.52155"
       transform="matrix(0.26458333,0,0,0.26458333,70.592365,19.385468)"
       d="m 194.33705,357.45099 c 38.73191,38.88964 156.63419,50.782 156.63419,50.782 0,0 -117.94964,11.4131 -156.83928,50.14501 -38.88964,38.73191 -50.78201,156.63419 -50.78201,156.63419 0,0 -11.4131,-117.94964 -50.145008,-156.83928 -38.731907,-38.88964 -156.634186,-50.782 -156.634186,-50.782 0,0 117.949639,-11.4131 156.839277,-50.14501 38.889637,-38.73191 50.782007,-156.63419 50.782007,-156.63419 0,0 11.4131,117.94964 50.14501,156.83928 z"
       sodipodi:nodetypes="zczczczcz"
       inkscape:export-filename="C:\Users\Andrew\Documents\Projects\2022-10-29-threejs-pwa\v3\assets\sparkle01.png"
       inkscape:export-xdpi="7.9000001"
       inkscape:export-ydpi="7.9000001" />
  </g>
</svg>
